<svg width="40" height="36" viewBox="0 0 40 36" fill="none" xmlns="http://www.w3.org/2000/svg">
<path d="M4.84826 4.38062C4.84426 4.27813 4.87124 4.17665 4.92521 4.08924C4.97918 4.00685 5.04914 3.93752 5.1321 3.88527C5.21905 3.83001 5.31099 3.78379 5.40794 3.74863C5.50488 3.71145 5.60283 3.68231 5.69078 3.65719C6.02259 3.66021 6.3534 3.66121 6.68522 3.66121C7.01703 3.66121 7.34884 3.6592 7.68065 3.65719C8.01247 3.65518 8.34528 3.65317 8.67709 3.65016C9.0089 3.64815 9.34171 3.64715 9.67453 3.64715C9.76347 3.64313 9.85342 3.64815 9.94137 3.66222C10.0283 3.67628 10.1153 3.69638 10.1992 3.7225C10.2842 3.74863 10.3671 3.77977 10.4501 3.81293C10.533 3.84609 10.614 3.88226 10.6949 3.91742C10.7149 3.98575 10.7359 4.05307 10.7549 4.12239C10.7739 4.19172 10.7919 4.26005 10.8059 4.32937C10.8209 4.3987 10.8319 4.46903 10.8399 4.54037C10.8479 4.61171 10.8499 4.68305 10.8479 4.75539C10.8459 5.13217 10.8449 5.50795 10.8449 5.88473C10.8449 6.26151 10.8449 6.63729 10.8449 7.01408C10.8449 7.39086 10.8449 7.76664 10.8439 8.14342C10.8429 8.5202 10.8399 8.89598 10.8349 9.27276C10.7849 9.324 10.7349 9.38027 10.683 9.43453C10.632 9.48979 10.578 9.54204 10.52 9.59127C10.4641 9.6395 10.4021 9.67868 10.3362 9.70983C10.2682 9.74098 10.1942 9.75705 10.1193 9.75806C9.83843 9.77514 9.55759 9.78217 9.27575 9.78418C8.99491 9.78619 8.71307 9.78418 8.43223 9.78016C8.15139 9.77715 7.87055 9.77514 7.5897 9.77715C7.30886 9.78016 7.02902 9.7882 6.74918 9.80629C6.68222 9.86858 6.61826 9.93389 6.55629 10.0012C6.49433 10.0685 6.43536 10.1389 6.37739 10.2102C6.31942 10.2815 6.26346 10.3539 6.20649 10.4262C6.15052 10.4986 6.09455 10.5719 6.03758 10.6443C5.93764 10.7729 5.8387 10.9025 5.73975 11.0311C5.64081 11.1607 5.54086 11.2893 5.44092 11.4169C5.33998 11.5445 5.23804 11.6721 5.13509 11.7977C5.03115 11.9233 4.92521 12.0469 4.81627 12.1675C4.7623 12.2338 4.70434 12.3011 4.64737 12.3684C4.5904 12.4357 4.53443 12.5061 4.48446 12.5784C4.43449 12.6497 4.39151 12.7261 4.35853 12.8065C4.32455 12.8879 4.30556 12.9753 4.30157 13.0627C4.29257 13.3269 4.29057 13.5922 4.28957 13.8575C4.28957 14.1227 4.29157 14.387 4.29357 14.6522C4.29557 14.9175 4.29557 15.1827 4.29157 15.447C4.28757 15.7112 4.27958 15.9765 4.26259 16.2417C4.4135 16.3935 4.55842 16.5512 4.69834 16.712C4.83826 16.8727 4.97618 17.0375 5.11211 17.2023C5.24803 17.3671 5.38295 17.5339 5.51988 17.6986C5.6568 17.8634 5.79572 18.0262 5.93864 18.1849C6.1915 18.189 6.44335 18.189 6.69621 18.1869C6.94907 18.1849 7.20192 18.1809 7.45478 18.1789C7.70764 18.1769 7.96149 18.1759 8.21435 18.1789C8.46721 18.1819 8.72107 18.19 8.97392 18.206C9.05688 18.205 9.13983 18.2201 9.21778 18.2502C9.29174 18.2804 9.3617 18.3216 9.42467 18.3718C9.48863 18.4231 9.5486 18.4793 9.60356 18.5406C9.65953 18.6009 9.7125 18.6652 9.76447 18.7265C9.76647 19.1415 9.76747 19.5564 9.76747 19.9714C9.76747 20.3863 9.76747 20.8013 9.76747 21.2163C9.76747 21.6312 9.76747 22.0462 9.76747 22.4612C9.76747 22.8761 9.76747 23.2911 9.76747 23.7061C9.7135 23.7744 9.65853 23.8467 9.59957 23.915C9.5416 23.9844 9.47764 24.0477 9.40868 24.1039C9.34171 24.1592 9.26476 24.2024 9.1828 24.2305C9.09485 24.2597 9.00191 24.2667 8.91096 24.2526C8.51518 24.2476 8.1204 24.2476 7.72463 24.2486C7.32885 24.2486 6.93407 24.2516 6.5393 24.2506C6.14452 24.2506 5.74975 24.2466 5.35597 24.2376C4.96219 24.2285 4.56841 24.2135 4.17464 24.1893C4.14365 24.1582 4.11267 24.126 4.08169 24.0949C4.05071 24.0637 4.01972 24.0326 3.98874 24.0015C3.95776 23.9703 3.92678 23.9392 3.8948 23.909C3.86381 23.8779 3.83183 23.8477 3.80085 23.8176C3.77986 23.5352 3.76787 23.2539 3.76187 22.9716C3.75587 22.6892 3.75587 22.4069 3.75787 22.1246C3.75987 21.8422 3.76387 21.5599 3.76587 21.2776C3.76787 20.9952 3.76887 20.7129 3.76387 20.4306C3.76787 20.2839 3.76687 20.1362 3.76387 19.9885C3.76087 19.8408 3.75687 19.6941 3.75587 19.5464C3.75388 19.3987 3.75587 19.252 3.76287 19.1053C3.76987 18.9586 3.78486 18.8129 3.80785 18.6682C3.84982 18.6079 3.89879 18.5527 3.95176 18.5024C4.00473 18.4522 4.0617 18.406 4.12067 18.3618C4.17963 18.3176 4.2396 18.2754 4.29957 18.2332C4.35953 18.191 4.4175 18.1478 4.47347 18.1015C4.37452 17.9478 4.26858 17.7991 4.15865 17.6534C4.04871 17.5077 3.93377 17.3661 3.81684 17.2264C3.69991 17.0867 3.58097 16.9481 3.46204 16.8104C3.34311 16.6718 3.22318 16.5341 3.10724 16.3945C2.86038 16.3734 2.61152 16.3663 2.36366 16.3744C2.1138 16.3804 1.86395 16.3924 1.61509 16.3975C1.36823 16.4045 1.12037 16.3975 0.873506 16.3734C0.627645 16.3503 0.385782 16.296 0.152913 16.2136C0.14192 16.1825 0.130926 16.1513 0.119932 16.1202C0.108938 16.089 0.0979446 16.0579 0.0859514 16.0277C0.0749576 15.9966 0.0629644 15.9664 0.0519706 15.9353C0.0409769 15.9041 0.0289836 15.874 0.0179898 15.8439C0.0169904 15.5565 0.0179898 15.2681 0.0179898 14.9808C0.0189893 14.6934 0.0209882 14.4061 0.0219877 14.1187C0.0229871 13.8313 0.0219874 13.544 0.0189891 13.2566C0.0159908 12.9693 0.00999434 12.6819 0 12.3945C0.0339808 12.3694 0.0649633 12.3413 0.0929474 12.3101C0.121931 12.279 0.148916 12.2458 0.177899 12.2137C0.204884 12.1815 0.234867 12.1524 0.266849 12.1253C0.298831 12.0991 0.334811 12.078 0.374788 12.065C0.663624 12.0298 0.955459 12.0147 1.24629 12.0178C1.53813 12.0188 1.83196 12.0308 2.1238 12.0378C2.41663 12.0449 2.70847 12.0469 2.9973 12.0268C3.28814 12.0097 3.57598 11.9615 3.85682 11.8851C3.95276 11.7033 4.0587 11.5264 4.17564 11.3576C4.29157 11.1878 4.4145 11.0251 4.54243 10.8643C4.67036 10.7035 4.80228 10.5458 4.93421 10.388C5.06613 10.2303 5.19906 10.0736 5.32798 9.9138V9.86557C5.32798 9.84748 5.32798 9.82739 5.32798 9.80629C5.32798 9.78619 5.32798 9.7661 5.32798 9.74701C5.32798 9.72792 5.32798 9.71084 5.32798 9.69777C5.27202 9.6616 5.21105 9.62644 5.15208 9.58926C5.09312 9.55309 5.03715 9.51189 4.98618 9.46668C4.93721 9.42348 4.89723 9.37022 4.87024 9.30994C4.84226 9.24362 4.83426 9.17028 4.84526 9.09894C4.83726 8.70608 4.83127 8.31322 4.82727 7.92036C4.82327 7.5275 4.82127 7.13465 4.82127 6.74078C4.82127 6.34792 4.82327 5.95507 4.82827 5.5612C4.83326 5.16834 4.83926 4.77548 4.84826 4.38162V4.38062Z" fill="#14416B"/>
<path d="M6.75125 9.80627L10.2823 9.73092C10.3242 9.73192 10.4941 9.73292 10.648 9.60432C10.798 9.47872 10.8299 9.31495 10.8369 9.27275V4.5072C10.8419 4.45093 10.8589 4.19673 10.68 3.97066C10.4601 3.69335 10.1273 3.69134 10.0864 3.69134C8.62119 3.68029 7.15602 3.66823 5.69085 3.65718C5.62389 3.65919 5.31406 3.67426 5.0752 3.92645C4.90929 4.10027 4.86332 4.29721 4.84932 4.3796C4.84833 5.95204 4.84733 7.52347 4.84633 9.09591C4.87131 9.16825 4.90829 9.25466 4.96726 9.34509C5.08619 9.52896 5.23411 9.63647 5.32905 9.69474C4.83933 10.4242 4.34861 11.1536 3.85888 11.8831H0.373857C0.323886 11.9012 0.20995 11.9484 0.117002 12.064C0.040046 12.1584 0.0120619 12.2559 0.00106812 12.3071C0.00706472 13.4857 0.0130614 14.6633 0.019058 15.8418C0.0140608 15.881 0.00306706 15.9986 0.0710286 16.1201C0.124998 16.2166 0.200955 16.2668 0.236935 16.2869C1.19939 16.31 2.16185 16.3332 3.1243 16.3573L4.47454 18.1005C4.39858 18.1126 4.21368 18.1538 4.04478 18.3075C3.89686 18.4411 3.8349 18.5939 3.80991 18.6672C3.80691 20.3662 3.80392 22.0643 3.79992 23.7633C3.79792 23.7955 3.79192 23.9201 3.87787 24.0346C3.98681 24.1783 4.15272 24.1893 4.1767 24.1903C5.82477 24.2134 7.47284 24.2365 9.12091 24.2607C9.20586 24.2355 9.33579 24.1843 9.46871 24.0808C9.63861 23.9482 9.72756 23.7935 9.76954 23.706C9.76854 22.0462 9.76754 20.3853 9.76654 18.7255C9.74955 18.6652 9.69258 18.5004 9.52968 18.3688C9.37576 18.2452 9.21486 18.2221 9.15189 18.2171C8.08949 18.209 7.02609 18.201 5.96369 18.193L4.25666 16.2568L4.33262 12.7934L6.75225 9.80527L6.75125 9.80627Z" fill="#14416B"/>
<path d="M15.7068 6.03845L18.6452 6.15701C18.944 6.89249 19.2428 7.62797 19.5416 8.36345C19.9374 8.35341 20.3332 8.34235 20.729 8.33231C20.3822 7.61391 20.0354 6.89651 19.6886 6.17811L20.4461 6.12386C20.5701 6.11582 20.8439 6.08166 21.1128 5.88874C21.2867 5.76315 21.3926 5.61847 21.4516 5.52201C21.4536 3.89129 21.4546 2.26158 21.4566 0.630868C21.4326 0.554507 21.3646 0.372646 21.1867 0.218919C21.0088 0.0641867 20.8199 0.0239965 20.741 0.0109347C19.2768 0.00792043 17.8126 0.00591092 16.3485 0.00289666C16.2585 -0.00413662 15.9487 -0.0151889 15.6558 0.195809C15.434 0.355565 15.336 0.560535 15.298 0.652972C15.299 2.16915 15.3 3.68532 15.301 5.20149C15.302 5.30498 15.318 5.51196 15.442 5.72999C15.5279 5.88071 15.6329 5.97917 15.7048 6.03745L15.7068 6.03845Z" fill="#14416B"/>
<path d="M23.1163 8.11126C23.5511 7.80682 23.9859 7.50338 24.4206 7.19894C24.3746 7.14167 24.3137 7.05426 24.2687 6.9357C24.2137 6.79302 24.2047 6.66642 24.2057 6.58604C24.2267 4.97442 24.2477 3.36279 24.2687 1.75117C24.3447 1.67481 24.4526 1.58136 24.5975 1.49797C24.7864 1.38946 24.9623 1.34123 25.0842 1.31912C26.6214 1.32314 28.1575 1.32817 29.6946 1.33218C29.7766 1.36534 29.9615 1.45175 30.1124 1.65069C30.2623 1.84762 30.2993 2.04757 30.3103 2.13599C30.3123 3.59489 30.3143 5.0548 30.3163 6.5137C30.3203 6.56796 30.3393 6.86134 30.1224 7.11655C29.9075 7.36874 29.6197 7.39788 29.5647 7.4019C28.3114 7.40894 27.0591 7.41597 25.8058 7.423C25.0732 7.92538 24.3397 8.42776 23.6071 8.93114" fill="#14416B"/>
<path d="M23.7172 8.0992H18.9958C18.8987 8.0992 18.8199 8.17837 18.8199 8.27603V12.4448C18.8199 12.5424 18.8987 12.6216 18.9958 12.6216H23.7172C23.8143 12.6216 23.8931 12.5424 23.8931 12.4448V8.27603C23.8931 8.17837 23.8143 8.0992 23.7172 8.0992Z" fill="#14416B"/>
<path d="M14.6122 15.1043L14.5872 11.2531C14.5662 11.1858 14.5162 11.0572 14.3973 10.9376C14.2674 10.806 14.1244 10.7547 14.0565 10.7356C12.4304 10.7356 10.8033 10.7346 9.17724 10.7336C9.13027 10.7326 8.93438 10.7336 8.76648 10.8813C8.64355 10.9909 8.60157 11.1215 8.58758 11.1757C8.58258 12.8446 8.57858 14.5135 8.57359 16.1824C8.61256 16.2688 8.70151 16.4326 8.87941 16.5753C9.04932 16.7109 9.22022 16.7612 9.31117 16.7812H13.7567C13.8676 16.7702 14.0395 16.739 14.2294 16.6466C14.4103 16.5582 14.5362 16.4467 14.6122 16.3683C14.98 16.6245 17.2297 17.7699 17.5965 18.0271L17.6105 16.8023L14.6122 15.1053V15.1043Z" fill="#14416B"/>
<path d="M18.3644 19.7001C18.7512 19.6981 19.1389 19.6961 19.5257 19.6941C19.2709 20.2185 18.4723 22.3004 18.2175 22.8249H16.8882L18.3644 19.6991V19.7001Z" fill="#14416B"/>
<path d="M36.4919 6.79803H32.3882C32.2436 6.79803 32.1263 6.91589 32.1263 7.06128V11.0702C32.1263 11.2156 32.2436 11.3335 32.3882 11.3335H36.4919C36.6365 11.3335 36.7537 11.2156 36.7537 11.0702V7.06128C36.7537 6.91589 36.6365 6.79803 36.4919 6.79803Z" fill="#14416B"/>
<path d="M39.7385 14.2001H35.6348C35.4902 14.2001 35.373 14.3179 35.373 14.4633V18.4723C35.373 18.6177 35.4902 18.7355 35.6348 18.7355H39.7385C39.8831 18.7355 40.0004 18.6177 40.0004 18.4723V14.4633C40.0004 14.3179 39.8831 14.2001 39.7385 14.2001Z" fill="#14416B"/>
<path d="M37.7202 14.2001L36.6108 14.2051L34.9417 11.1546L36.204 11.1707L37.7202 14.2001Z" fill="#14416B"/>
<path d="M32.2101 22.1397L31.1197 22.3497L28.921 19.6599L30.1643 19.4419L32.2101 22.1397Z" fill="#14416B"/>
<path d="M27.623 31.4246L28.7124 31.6346L31.5448 28.1712L30.9121 27.3784L27.623 31.4246Z" fill="#14416B"/>
<path d="M37.4427 21.5036H31.2652C31.0202 21.5036 30.8215 21.7034 30.8215 21.9497V28.2817C30.8215 28.5281 31.0202 28.7278 31.2652 28.7278H37.4427C37.6878 28.7278 37.8865 28.5281 37.8865 28.2817V21.9497C37.8865 21.7034 37.6878 21.5036 37.4427 21.5036Z" fill="#14416B"/>
<path d="M28.7124 30.5876H24.8596C24.7144 30.5876 24.5967 30.7059 24.5967 30.8519V34.8005C24.5967 34.9465 24.7144 35.0648 24.8596 35.0648H28.7124C28.8576 35.0648 28.9753 34.9465 28.9753 34.8005V30.8519C28.9753 30.7059 28.8576 30.5876 28.7124 30.5876Z" fill="#14416B"/>
<path d="M30.2667 14.0886H24.5589C24.4137 14.0886 24.2961 14.2069 24.2961 14.3528V20.0226C24.2961 20.1686 24.4137 20.2869 24.5589 20.2869H30.2667C30.4118 20.2869 30.5295 20.1686 30.5295 20.0226V14.3528C30.5295 14.2069 30.4118 14.0886 30.2667 14.0886Z" fill="#14416B"/>
<path d="M19.2085 22.7415H14.708C14.5877 22.7415 14.4901 22.8396 14.4901 22.9606V27.485C14.4901 27.6059 14.5877 27.704 14.708 27.704H19.2085C19.3288 27.704 19.4263 27.6059 19.4263 27.485V22.9606C19.4263 22.8396 19.3288 22.7415 19.2085 22.7415Z" fill="#14416B"/>
<path d="M25.6996 23.4639H22.8502C22.7299 23.4639 22.6324 23.562 22.6324 23.683V26.5475C22.6324 26.6685 22.7299 26.7666 22.8502 26.7666H25.6996C25.82 26.7666 25.9175 26.6685 25.9175 26.5475V23.683C25.9175 23.562 25.82 23.4639 25.6996 23.4639Z" fill="#14416B"/>
<path d="M23.09 24.6485H18.9833V25.4664H23.09V24.6485Z" fill="#14416B"/>
<path d="M21.4985 15.7011H17.5557C17.4288 15.7011 17.3259 15.8046 17.3259 15.9322V19.896C17.3259 20.0236 17.4288 20.1271 17.5557 20.1271H21.4985C21.6255 20.1271 21.7284 20.0236 21.7284 19.896V15.9322C21.7284 15.8046 21.6255 15.7011 21.4985 15.7011Z" fill="#14416B"/>
</svg>
