<svg width="157" height="49" viewBox="0 0 157 49" fill="none" xmlns="http://www.w3.org/2000/svg">
<path d="M20.9391 8.3662C20.9342 8.24066 20.9672 8.11634 21.0333 8.00926C21.0994 7.90834 21.1851 7.82341 21.2868 7.75941C21.3933 7.69171 21.5059 7.6351 21.6247 7.59202C21.7434 7.54648 21.8634 7.51078 21.9711 7.48001C22.3776 7.48371 22.7828 7.48494 23.1893 7.48494C23.5958 7.48494 24.0022 7.48248 24.4087 7.48001C24.8152 7.47755 25.2229 7.47509 25.6293 7.4714C26.0358 7.46894 26.4435 7.46771 26.8512 7.46771C26.9601 7.46278 27.0703 7.46894 27.1781 7.48617C27.2846 7.5034 27.3911 7.52802 27.4939 7.56002C27.598 7.59202 27.6996 7.63017 27.8012 7.67079C27.9029 7.71141 28.002 7.75572 28.1012 7.79879C28.1257 7.88249 28.1514 7.96495 28.1746 8.04988C28.1979 8.13481 28.2199 8.2185 28.2371 8.30343C28.2555 8.38835 28.2689 8.47451 28.2787 8.5619C28.2885 8.64929 28.291 8.73667 28.2885 8.82529C28.2861 9.28685 28.2848 9.74717 28.2848 10.2087C28.2848 10.6703 28.2848 11.1306 28.2848 11.5922C28.2848 12.0537 28.2848 12.514 28.2836 12.9756C28.2824 13.4371 28.2787 13.8975 28.2726 14.359C28.2114 14.4218 28.1502 14.4907 28.0865 14.5572C28.0241 14.6249 27.9579 14.6889 27.8869 14.7492C27.8184 14.8083 27.7425 14.8563 27.6617 14.8944C27.5784 14.9326 27.4878 14.9523 27.396 14.9535C27.052 14.9744 26.7079 14.983 26.3627 14.9855C26.0187 14.988 25.6734 14.9855 25.3294 14.9806C24.9854 14.9769 24.6413 14.9744 24.2973 14.9769C23.9533 14.9806 23.6105 14.9904 23.2677 15.0126C23.1856 15.0889 23.1073 15.1689 23.0314 15.2514C22.9555 15.3338 22.8832 15.42 22.8122 15.5074C22.7412 15.5948 22.6727 15.6834 22.6029 15.772C22.5343 15.8606 22.4658 15.9505 22.396 16.0391C22.2735 16.1966 22.1523 16.3554 22.0311 16.5129C21.9099 16.6717 21.7875 16.8293 21.6651 16.9856C21.5414 17.1419 21.4165 17.2982 21.2904 17.4521C21.1631 17.6059 21.0333 17.7573 20.8999 17.905C20.8338 17.9862 20.7628 18.0687 20.693 18.1512C20.6232 18.2336 20.5546 18.3198 20.4934 18.4084C20.4322 18.4958 20.3796 18.5893 20.3392 18.6878C20.2975 18.7875 20.2743 18.8946 20.2694 19.0016C20.2584 19.3254 20.2559 19.6503 20.2547 19.9752C20.2547 20.3002 20.2571 20.6239 20.2596 20.9488C20.262 21.2737 20.262 21.5987 20.2571 21.9224C20.2522 22.2461 20.2424 22.571 20.2216 22.8959C20.4065 23.0818 20.584 23.275 20.7554 23.472C20.9268 23.6689 21.0958 23.8707 21.2623 24.0726C21.4288 24.2744 21.5941 24.4788 21.7618 24.6806C21.9295 24.8825 22.0997 25.0819 22.2748 25.2763C22.5845 25.2813 22.893 25.2813 23.2028 25.2788C23.5125 25.2763 23.8223 25.2714 24.132 25.2689C24.4418 25.2665 24.7527 25.2653 25.0625 25.2689C25.3722 25.2726 25.6832 25.2825 25.993 25.3022C26.0946 25.3009 26.1962 25.3194 26.2917 25.3563C26.3823 25.3933 26.468 25.4437 26.5451 25.5053C26.6235 25.568 26.6969 25.637 26.7643 25.712C26.8328 25.7859 26.8977 25.8647 26.9614 25.9397C26.9638 26.4481 26.965 26.9564 26.965 27.4647C26.965 27.973 26.965 28.4814 26.965 28.9897C26.965 29.498 26.965 30.0063 26.965 30.5147C26.965 31.023 26.965 31.5313 26.965 32.0396C26.8989 32.1233 26.8316 32.212 26.7594 32.2957C26.6884 32.3806 26.61 32.4581 26.5255 32.527C26.4435 32.5947 26.3492 32.6477 26.2488 32.6821C26.1411 32.7178 26.0272 32.7264 25.9158 32.7092C25.431 32.703 24.9474 32.703 24.4626 32.7043C23.9778 32.7043 23.4942 32.708 23.0106 32.7067C22.527 32.7067 22.0434 32.7018 21.561 32.6907C21.0786 32.6797 20.5963 32.6612 20.1139 32.6317C20.0759 32.5935 20.038 32.5541 20 32.516C19.9621 32.4778 19.9241 32.4397 19.8862 32.4015C19.8482 32.3633 19.8103 32.3252 19.7711 32.2883C19.7331 32.2501 19.694 32.2132 19.656 32.1763C19.6303 31.8304 19.6156 31.4858 19.6083 31.1399C19.6009 30.7941 19.6009 30.4482 19.6034 30.1023C19.6058 29.7565 19.6107 29.4106 19.6131 29.0648C19.6156 28.7189 19.6168 28.3731 19.6107 28.0272C19.6156 27.8475 19.6144 27.6666 19.6107 27.4856C19.607 27.3047 19.6021 27.125 19.6009 26.9441C19.5985 26.7631 19.6009 26.5835 19.6095 26.4038C19.618 26.2241 19.6364 26.0456 19.6646 25.8683C19.716 25.7945 19.776 25.7268 19.8409 25.6653C19.9058 25.6037 19.9755 25.5471 20.0478 25.493C20.12 25.4388 20.1935 25.3871 20.2669 25.3354C20.3404 25.2837 20.4114 25.2308 20.4799 25.1742C20.3587 24.9859 20.229 24.8037 20.0943 24.6252C19.9596 24.4468 19.8188 24.2732 19.6756 24.1021C19.5323 23.931 19.3867 23.7612 19.241 23.5926C19.0953 23.4227 18.9484 23.2541 18.8063 23.083C18.5039 23.0572 18.1991 23.0486 17.8955 23.0584C17.5894 23.0658 17.2833 23.0806 16.9785 23.0867C16.6761 23.0953 16.3724 23.0867 16.07 23.0572C15.7689 23.0289 15.4726 22.9624 15.1873 22.8615C15.1738 22.8233 15.1604 22.7852 15.1469 22.747C15.1334 22.7089 15.12 22.6707 15.1053 22.6338C15.0918 22.5956 15.0771 22.5587 15.0637 22.5205C15.0502 22.4824 15.0355 22.4455 15.022 22.4085C15.0208 22.0565 15.022 21.7033 15.022 21.3513C15.0233 20.9993 15.0257 20.6472 15.0269 20.2952C15.0282 19.9432 15.0269 19.5912 15.0233 19.2392C15.0196 18.8872 15.0122 18.5352 15 18.1832C15.0416 18.1524 15.0796 18.1179 15.1139 18.0798C15.1494 18.0416 15.1824 18.001 15.2179 17.9616C15.251 17.9222 15.2877 17.8865 15.3269 17.8533C15.3661 17.8213 15.4101 17.7955 15.4591 17.7795C15.8129 17.7364 16.1704 17.7179 16.5267 17.7216C16.8842 17.7228 17.2441 17.7376 17.6016 17.7462C17.9603 17.7548 18.3178 17.7573 18.6717 17.7327C19.0279 17.7118 19.3805 17.6527 19.7246 17.5591C19.8421 17.3364 19.9719 17.1197 20.1151 16.913C20.2571 16.705 20.4077 16.5056 20.5644 16.3086C20.7211 16.1117 20.8827 15.9185 21.0443 15.7252C21.206 15.532 21.3688 15.34 21.5267 15.1443V15.0852C21.5267 15.063 21.5267 15.0384 21.5267 15.0126C21.5267 14.988 21.5267 14.9634 21.5267 14.94C21.5267 14.9166 21.5267 14.8957 21.5267 14.8797C21.4582 14.8353 21.3835 14.7923 21.3112 14.7467C21.239 14.7024 21.1705 14.652 21.108 14.5966C21.048 14.5436 20.9991 14.4784 20.966 14.4046C20.9317 14.3233 20.9219 14.2335 20.9354 14.1461C20.9256 13.6648 20.9182 13.1836 20.9133 12.7023C20.9085 12.2211 20.906 11.7399 20.906 11.2574C20.906 10.7761 20.9085 10.2949 20.9146 9.8124C20.9207 9.33116 20.928 8.84991 20.9391 8.36743V8.3662Z" fill="#14416B"/>
<path d="M23.2708 15.0126L27.5963 14.9203C27.6477 14.9215 27.8558 14.9227 28.0444 14.7652C28.228 14.6113 28.2672 14.4107 28.2758 14.359V8.52128C28.2819 8.45235 28.3027 8.14096 28.0836 7.86402C27.8142 7.52432 27.4065 7.52186 27.3563 7.52186C25.5615 7.50832 23.7667 7.49355 21.9719 7.48001C21.8898 7.48247 21.5103 7.50093 21.2177 7.80987C21.0145 8.0228 20.9582 8.26404 20.941 8.36496C20.9398 10.2912 20.9386 12.2162 20.9373 14.1424C20.9679 14.231 21.0132 14.3369 21.0855 14.4476C21.2312 14.6729 21.4124 14.8046 21.5287 14.876C20.9288 15.7695 20.3276 16.6631 19.7277 17.5567H15.4586C15.3974 17.5788 15.2578 17.6367 15.144 17.7782C15.0497 17.8939 15.0154 18.0133 15.002 18.0761C15.0093 19.5198 15.0166 20.9623 15.024 22.4061C15.0179 22.4541 15.0044 22.5981 15.0877 22.747C15.1538 22.8652 15.2468 22.9267 15.2909 22.9513C16.4699 22.9796 17.6489 23.0079 18.8279 23.0375L20.4819 25.1729C20.3889 25.1877 20.1624 25.2382 19.9555 25.4265C19.7743 25.5902 19.6984 25.7773 19.6677 25.8671C19.6641 27.9484 19.6604 30.0285 19.6555 32.1098C19.6531 32.1492 19.6457 32.3018 19.751 32.4421C19.8844 32.6181 20.0877 32.6317 20.1171 32.6329C22.1359 32.6612 24.1548 32.6895 26.1737 32.719C26.2777 32.6883 26.4369 32.6255 26.5997 32.4987C26.8078 32.3363 26.9168 32.1467 26.9682 32.0396C26.967 30.0063 26.9658 27.9718 26.9645 25.9385C26.9437 25.8647 26.874 25.6628 26.6744 25.5016C26.4858 25.3502 26.2887 25.3219 26.2116 25.3157C24.9102 25.3059 23.6075 25.296 22.3061 25.2862L20.215 22.9144L20.3081 18.6718L23.2721 15.0114L23.2708 15.0126Z" fill="#14416B"/>
<path d="M34.241 10.397L37.8404 10.5423C38.2065 11.4432 38.5725 12.3442 38.9386 13.2451C39.4234 13.2328 39.9082 13.2193 40.3931 13.207C39.9682 12.327 39.5434 11.4482 39.1186 10.5681L40.0466 10.5017C40.1984 10.4918 40.5339 10.45 40.8632 10.2136C41.0762 10.0598 41.206 9.88256 41.2782 9.7644C41.2807 7.76679 41.2819 5.77041 41.2843 3.77281C41.255 3.67926 41.1717 3.45649 40.9538 3.26817C40.7359 3.07863 40.5045 3.0294 40.4077 3.01339C38.6142 3.0097 36.8206 3.00724 35.027 3.00355C34.9168 2.99493 34.5373 2.98139 34.1785 3.23986C33.9067 3.43556 33.7868 3.68665 33.7402 3.79988C33.7415 5.65718 33.7427 7.51447 33.7439 9.37177C33.7451 9.49854 33.7647 9.75209 33.9165 10.0192C34.0218 10.2038 34.1504 10.3244 34.2385 10.3958L34.241 10.397Z" fill="#14416B"/>
<path d="M43.3174 12.9362C43.85 12.5633 44.3825 12.1916 44.9151 11.8186C44.8588 11.7485 44.7841 11.6414 44.729 11.4961C44.6617 11.3214 44.6506 11.1663 44.6519 11.0678C44.6776 9.0936 44.7033 7.11938 44.729 5.14515C44.822 5.05161 44.9543 4.93715 45.1318 4.83499C45.3632 4.70206 45.5787 4.64298 45.728 4.61591C47.611 4.62083 49.4927 4.62698 51.3757 4.63191C51.4761 4.67252 51.7026 4.77837 51.8875 5.02207C52.0711 5.26331 52.1164 5.50824 52.1299 5.61656C52.1323 7.4037 52.1348 9.19206 52.1372 10.9792C52.1421 11.0457 52.1654 11.4051 51.8997 11.7177C51.6365 12.0266 51.2839 12.0623 51.2165 12.0672C49.6813 12.0759 48.1472 12.0845 46.612 12.0931C45.7146 12.7085 44.8159 13.3239 43.9185 13.9405" fill="#14416B"/>
<path d="M44.0528 12.9214H38.2692C38.1502 12.9214 38.0537 13.0184 38.0537 13.138V18.2447C38.0537 18.3643 38.1502 18.4613 38.2692 18.4613H44.0528C44.1718 18.4613 44.2682 18.3643 44.2682 18.2447V13.138C44.2682 13.0184 44.1718 12.9214 44.0528 12.9214Z" fill="#14416B"/>
<path d="M32.8991 21.5027L32.8685 16.785C32.8428 16.7025 32.7816 16.545 32.6359 16.3985C32.4768 16.2372 32.3017 16.1745 32.2184 16.1511C30.2265 16.1511 28.2334 16.1499 26.2414 16.1486C26.1839 16.1474 25.9439 16.1486 25.7382 16.3296C25.5877 16.4637 25.5362 16.6237 25.5191 16.6902C25.513 18.7346 25.5081 20.7789 25.502 22.8233C25.5497 22.9292 25.6587 23.1298 25.8766 23.3046C26.0847 23.4707 26.2941 23.5323 26.4055 23.5569H31.8512C31.987 23.5433 32.1976 23.5052 32.4302 23.392C32.6518 23.2836 32.8061 23.147 32.8991 23.051C33.3497 23.3649 36.1056 24.768 36.5549 25.0831L36.572 23.5827L32.8991 21.5039V21.5027Z" fill="#14416B"/>
<path d="M37.4968 27.1324C37.9706 27.1299 38.4456 27.1275 38.9194 27.125C38.6072 27.7675 37.629 30.3177 37.3168 30.9602H35.6885L37.4968 27.1312V27.1324Z" fill="#14416B"/>
<path d="M59.7022 11.3275H54.6753C54.4981 11.3275 54.3545 11.4719 54.3545 11.65V16.5609C54.3545 16.739 54.4981 16.8834 54.6753 16.8834H59.7022C59.8794 16.8834 60.023 16.739 60.023 16.5609V11.65C60.023 11.4719 59.8794 11.3275 59.7022 11.3275Z" fill="#14416B"/>
<path d="M63.6788 20.3949H58.6518C58.4747 20.3949 58.3311 20.5393 58.3311 20.7174V25.6283C58.3311 25.8064 58.4747 25.9508 58.6518 25.9508H63.6788C63.8559 25.9508 63.9995 25.8064 63.9995 25.6283V20.7174C63.9995 20.5393 63.8559 20.3949 63.6788 20.3949Z" fill="#14416B"/>
<path d="M61.2073 20.3949L59.8483 20.4011L57.8037 16.6643L59.35 16.684L61.2073 20.3949Z" fill="#14416B"/>
<path d="M54.4579 30.1208L53.1222 30.378L50.4287 27.0832L51.9517 26.8161L54.4579 30.1208Z" fill="#14416B"/>
<path d="M48.8379 41.4947L50.1724 41.752L53.642 37.5094L52.867 36.5383L48.8379 41.4947Z" fill="#14416B"/>
<path d="M60.8678 29.3417H53.3004C53.0002 29.3417 52.7568 29.5864 52.7568 29.8882V37.6448C52.7568 37.9466 53.0002 38.1912 53.3004 38.1912H60.8678C61.168 38.1912 61.4114 37.9466 61.4114 37.6448V29.8882C61.4114 29.5864 61.168 29.3417 60.8678 29.3417Z" fill="#14416B"/>
<path d="M50.1725 40.4695H45.4528C45.275 40.4695 45.1309 40.6144 45.1309 40.7932V45.6303C45.1309 45.8091 45.275 45.954 45.4528 45.954H50.1725C50.3503 45.954 50.4945 45.8091 50.4945 45.6303V40.7932C50.4945 40.6144 50.3503 40.4695 50.1725 40.4695Z" fill="#14416B"/>
<path d="M52.0766 20.2583H45.0847C44.9069 20.2583 44.7627 20.4032 44.7627 20.582V27.5275C44.7627 27.7063 44.9069 27.8512 45.0847 27.8512H52.0766C52.2545 27.8512 52.3986 27.7063 52.3986 27.5275V20.582C52.3986 20.4032 52.2545 20.2583 52.0766 20.2583Z" fill="#14416B"/>
<path d="M38.5309 30.8581H33.0179C32.8705 30.8581 32.751 30.9782 32.751 31.1264V36.6688C32.751 36.8169 32.8705 36.9371 33.0179 36.9371H38.5309C38.6783 36.9371 38.7978 36.8169 38.7978 36.6688V31.1264C38.7978 30.9782 38.6783 30.8581 38.5309 30.8581Z" fill="#14416B"/>
<path d="M46.483 31.743H42.9925C42.8451 31.743 42.7256 31.8632 42.7256 32.0114V35.5204C42.7256 35.6686 42.8451 35.7887 42.9925 35.7887H46.483C46.6304 35.7887 46.7498 35.6686 46.7498 35.5204V32.0114C46.7498 31.8632 46.6304 31.743 46.483 31.743Z" fill="#14416B"/>
<path d="M43.2855 33.1942H38.2549V34.1961H43.2855V33.1942Z" fill="#14416B"/>
<path d="M41.3351 22.2337H36.5052C36.3497 22.2337 36.2236 22.3605 36.2236 22.5168V27.3724C36.2236 27.5287 36.3497 27.6555 36.5052 27.6555H41.3351C41.4906 27.6555 41.6167 27.5287 41.6167 27.3724V22.5168C41.6167 22.3605 41.4906 22.2337 41.3351 22.2337Z" fill="#14416B"/>
<path d="M71 23.7578L78.4188 13.4946V15.9717L71.3528 6.06317H75.0488L80.3029 13.3952L78.7929 13.4194L83.9989 6.06317H87.5453L80.5301 15.7944V13.4194L87.997 23.7578H84.2261L78.6941 15.9717H80.1773L74.7201 23.7578H71Z" fill="#14416B"/>
<path d="M98.1573 24.013C96.7836 24.013 95.5195 23.7901 94.373 23.3441C93.2239 22.8981 92.2244 22.2667 91.3692 21.4472C90.514 20.6305 89.8512 19.666 89.3835 18.5537C88.9132 17.4414 88.6807 16.227 88.6807 14.9132C88.6807 13.5994 88.9158 12.385 89.3835 11.2727C89.8539 10.1604 90.5193 9.19588 91.3825 8.37912C92.2458 7.56236 93.2559 6.93099 94.4131 6.48231C95.5703 6.03632 96.8344 5.81332 98.2107 5.81332C99.702 5.81332 101.049 6.05782 102.246 6.5468C103.443 7.03578 104.454 7.75044 105.277 8.69616L103.216 10.7192C102.529 10.0288 101.786 9.51829 100.99 9.19051C100.194 8.86273 99.3171 8.69884 98.3631 8.69884C97.409 8.69884 96.5859 8.85198 95.7975 9.15289C95.0091 9.45649 94.3303 9.88637 93.761 10.4425C93.1918 10.9987 92.7509 11.6569 92.4408 12.4146C92.1308 13.1722 91.9758 14.0078 91.9758 14.9159C91.9758 15.824 92.1308 16.6354 92.4408 17.393C92.7509 18.1507 93.1918 18.8116 93.761 19.3758C94.3303 19.94 95.0011 20.3752 95.7734 20.6788C96.5431 20.9824 97.3983 21.1329 98.339 21.1329C99.2102 21.1329 100.052 20.9932 100.867 20.7165C101.68 20.437 102.455 19.9696 103.192 19.314L105.052 21.767C104.13 22.5085 103.061 23.07 101.845 23.4488C100.629 23.8277 99.4026 24.0184 98.1626 24.0184L98.1573 24.013ZM101.955 21.3317V14.709H105.047V21.7616L101.955 21.3317Z" fill="#14416B"/>
<path d="M112.614 21.0039H122.545V23.7578H109.343V6.06317H122.192V8.81973H112.611V21.0039H112.614ZM112.363 13.4194H121.112V16.1249H112.363V13.4194Z" fill="#14416B"/>
<path d="M126.191 23.7578V6.06317H128.883L139.92 19.6874H138.586V6.06317H141.831V23.7578H139.14L128.102 10.1335H129.436V23.7578H126.191Z" fill="#14416B"/>
<path d="M72.9984 33.8109V28.7001H71V27.7476H76.1182V28.7001H74.1198V33.8109H72.9998H72.9984Z" fill="#14416B"/>
<path d="M78.0829 32.8671H81.4859V33.8109H76.9629V27.7476H81.3651V28.6914H78.0829V32.8671ZM77.9966 30.2683H80.9957V31.1948H77.9966V30.2683Z" fill="#14416B"/>
<path d="M85.5246 33.8976C85.0646 33.8976 84.639 33.821 84.2451 33.6678C83.8511 33.5146 83.5104 33.2978 83.22 33.0188C82.9296 32.7399 82.7039 32.4075 82.5443 32.0273C82.3832 31.6458 82.3027 31.2309 82.3027 30.78C82.3027 30.329 82.3832 29.9142 82.5443 29.5326C82.7053 29.1511 82.9325 28.8215 83.2243 28.5411C83.5176 28.2607 83.8583 28.0439 84.2494 27.8922C84.6404 27.739 85.0674 27.6624 85.5333 27.6624C86.0278 27.6624 86.4778 27.7476 86.8861 27.9182C87.2944 28.0887 87.6381 28.3417 87.9199 28.6756L87.1967 29.3592C86.9782 29.1222 86.7337 28.9444 86.4649 28.8259C86.1946 28.7073 85.9013 28.6481 85.5865 28.6481C85.2716 28.6481 84.9812 28.7001 84.721 28.8042C84.4593 28.9083 84.2321 29.0557 84.0409 29.2465C83.8483 29.4373 83.6987 29.6627 83.5924 29.9229C83.486 30.1831 83.4328 30.4678 83.4328 30.78C83.4328 31.0922 83.486 31.3784 83.5924 31.6371C83.6987 31.8973 83.8483 32.1227 84.0409 32.3121C84.2336 32.5029 84.4607 32.6503 84.721 32.7544C84.9826 32.8584 85.2716 32.9104 85.5865 32.9104C85.9013 32.9104 86.1946 32.8512 86.4649 32.7327C86.7352 32.6142 86.9796 32.4335 87.1967 32.1907L87.9199 32.8844C87.6381 33.214 87.293 33.464 86.8861 33.6375C86.4793 33.8109 86.025 33.8976 85.5246 33.8976Z" fill="#14416B"/>
<path d="M90.121 33.8109H89.001V27.7476H90.121V33.8109ZM93.3256 31.2121H90.0261V30.251H93.3256V31.2121ZM93.2393 27.7476H94.3593V33.8109H93.2393V27.7476Z" fill="#14416B"/>
<path d="M95.9785 33.8109V27.7476H96.9001L100.683 32.4161H100.225V27.7476H101.337V33.8109H100.415L96.6327 29.1424H97.0899V33.8109H95.9785Z" fill="#14416B"/>
<path d="M105.785 33.8976C105.313 33.8976 104.88 33.8196 104.484 33.6635C104.087 33.5074 103.743 33.2891 103.45 33.0087C103.157 32.7283 102.929 32.4002 102.77 32.0215C102.609 31.6429 102.528 31.2295 102.528 30.7785C102.528 30.3276 102.609 29.9142 102.77 29.5355C102.931 29.1568 103.158 28.8287 103.45 28.5483C103.743 28.2679 104.087 28.0497 104.484 27.895C104.88 27.7389 105.31 27.6609 105.776 27.6609C106.242 27.6609 106.679 27.7389 107.073 27.895C107.467 28.0511 107.809 28.2694 108.102 28.5483C108.396 28.8287 108.621 29.1583 108.782 29.5355C108.943 29.9142 109.024 30.3276 109.024 30.7785C109.024 31.2295 108.943 31.6443 108.782 32.0259C108.621 32.4074 108.394 32.7355 108.102 33.013C107.809 33.2906 107.465 33.5074 107.073 33.662C106.679 33.8181 106.251 33.8962 105.785 33.8962V33.8976ZM105.776 32.9104C106.081 32.9104 106.363 32.8584 106.62 32.7543C106.879 32.6503 107.103 32.5014 107.291 32.3077C107.481 32.114 107.629 31.8886 107.736 31.6313C107.842 31.374 107.895 31.0907 107.895 30.7785C107.895 30.4663 107.842 30.1816 107.736 29.9258C107.629 29.6685 107.481 29.443 107.291 29.2493C107.102 29.0557 106.877 28.9068 106.62 28.8027C106.361 28.6987 106.079 28.6466 105.776 28.6466C105.473 28.6466 105.191 28.6987 104.936 28.8027C104.681 28.9068 104.456 29.0557 104.265 29.2493C104.074 29.443 103.923 29.6685 103.817 29.9258C103.71 30.183 103.657 30.4663 103.657 30.7785C103.657 31.0907 103.71 31.3668 103.817 31.6269C103.923 31.8871 104.071 32.114 104.261 32.3063C104.451 32.4999 104.675 32.6488 104.934 32.7529C105.192 32.857 105.473 32.909 105.778 32.909L105.776 32.9104Z" fill="#14416B"/>
<path d="M110.214 33.8109V27.7476H111.334V32.8584H114.487V33.8109H110.213H110.214Z" fill="#14416B"/>
<path d="M118.089 33.8976C117.618 33.8976 117.185 33.8196 116.788 33.6635C116.391 33.5074 116.048 33.2891 115.755 33.0087C115.461 32.7283 115.234 32.4002 115.075 32.0215C114.914 31.6429 114.833 31.2295 114.833 30.7785C114.833 30.3276 114.914 29.9142 115.075 29.5355C115.236 29.1568 115.463 28.8287 115.755 28.5483C116.048 28.2679 116.391 28.0497 116.788 27.895C117.185 27.7389 117.615 27.6609 118.081 27.6609C118.547 27.6609 118.984 27.7389 119.378 27.895C119.772 28.0511 120.114 28.2694 120.407 28.5483C120.7 28.8287 120.926 29.1583 121.087 29.5355C121.248 29.9142 121.329 30.3276 121.329 30.7785C121.329 31.2295 121.248 31.6443 121.087 32.0259C120.926 32.4074 120.699 32.7355 120.407 33.013C120.114 33.2906 119.77 33.5074 119.378 33.662C118.984 33.8181 118.555 33.8962 118.089 33.8962V33.8976ZM118.081 32.9104C118.386 32.9104 118.667 32.8584 118.925 32.7543C119.184 32.6503 119.408 32.5014 119.596 32.3077C119.786 32.114 119.934 31.8886 120.04 31.6313C120.147 31.374 120.2 31.0907 120.2 30.7785C120.2 30.4663 120.147 30.1816 120.04 29.9258C119.934 29.6685 119.786 29.443 119.596 29.2493C119.406 29.0557 119.182 28.9068 118.925 28.8027C118.666 28.6987 118.384 28.6466 118.081 28.6466C117.777 28.6466 117.496 28.6987 117.241 28.8027C116.985 28.9068 116.761 29.0557 116.57 29.2493C116.379 29.443 116.228 29.6685 116.121 29.9258C116.015 30.183 115.962 30.4663 115.962 30.7785C115.962 31.0907 116.015 31.3668 116.121 31.6269C116.228 31.8871 116.376 32.114 116.565 32.3063C116.755 32.4999 116.979 32.6488 117.238 32.7529C117.497 32.857 117.777 32.909 118.082 32.909L118.081 32.9104Z" fill="#14416B"/>
<path d="M125.334 33.8976C124.862 33.8976 124.431 33.821 124.037 33.6678C123.643 33.5146 123.301 33.2978 123.008 33.0188C122.714 32.7384 122.487 32.4075 122.327 32.0273C122.166 31.6458 122.086 31.2309 122.086 30.78C122.086 30.329 122.166 29.9142 122.327 29.5326C122.488 29.1511 122.717 28.8215 123.012 28.5411C123.308 28.2607 123.653 28.0439 124.05 27.8922C124.447 27.739 124.879 27.6624 125.351 27.6624C125.863 27.6624 126.323 27.7462 126.734 27.9138C127.145 28.0815 127.49 28.3272 127.772 28.6495L127.066 29.3419C126.83 29.1048 126.576 28.9299 126.304 28.8172C126.031 28.7045 125.732 28.6481 125.404 28.6481C125.076 28.6481 124.796 28.7001 124.526 28.8042C124.255 28.9083 124.023 29.0557 123.828 29.2465C123.633 29.4373 123.482 29.6627 123.376 29.9229C123.269 30.1831 123.216 30.4678 123.216 30.78C123.216 31.0922 123.269 31.3683 123.376 31.6284C123.482 31.8886 123.633 32.1155 123.828 32.3077C124.024 32.5014 124.254 32.6503 124.517 32.7544C124.782 32.8584 125.073 32.9104 125.396 32.9104C125.695 32.9104 125.982 32.8628 126.261 32.7674C126.54 32.672 126.806 32.5115 127.058 32.2861L127.694 33.1258C127.378 33.3802 127.013 33.5724 126.596 33.7011C126.179 33.8311 125.759 33.8962 125.334 33.8962V33.8976ZM126.635 32.9798V30.7106H127.694V33.1273L126.635 32.9798Z" fill="#14416B"/>
<path d="M129.17 33.8109V27.7476H130.29V33.8109H129.17Z" fill="#14416B"/>
<path d="M133.038 32.8671H136.441V33.8109H131.918V27.7476H136.32V28.6914H133.038V32.8671ZM132.952 30.2683H135.951V31.1948H132.952V30.2683Z" fill="#14416B"/>
<path d="M139.562 33.8976C139.09 33.8976 138.64 33.8297 138.209 33.6938C137.777 33.558 137.437 33.3831 137.184 33.1692L137.572 32.2947C137.813 32.4855 138.111 32.6445 138.467 32.7717C138.824 32.8989 139.188 32.9625 139.562 32.9625C139.878 32.9625 140.134 32.9278 140.328 32.8584C140.523 32.789 140.667 32.6951 140.759 32.5766C140.851 32.458 140.897 32.3236 140.897 32.1733C140.897 31.9883 140.831 31.8394 140.699 31.7267C140.567 31.614 140.395 31.5243 140.186 31.4579C139.976 31.3914 139.743 31.3292 139.488 31.2714C139.232 31.2136 138.976 31.1457 138.722 31.0676C138.466 30.9896 138.233 30.8884 138.025 30.7641C137.815 30.6398 137.644 30.4736 137.511 30.2654C137.379 30.0573 137.313 29.7914 137.313 29.469C137.313 29.1467 137.401 28.8389 137.576 28.5642C137.751 28.2896 138.019 28.0699 138.377 27.9066C138.736 27.7418 139.191 27.6595 139.743 27.6595C140.105 27.6595 140.463 27.7057 140.82 27.7982C141.176 27.8907 141.485 28.0237 141.75 28.1971L141.396 29.0716C141.126 28.9097 140.847 28.7897 140.561 28.7117C140.273 28.6336 139.997 28.5946 139.734 28.5946C139.424 28.5946 139.172 28.6322 138.981 28.7073C138.788 28.7825 138.647 28.8808 138.558 29.0022C138.469 29.1236 138.424 29.2624 138.424 29.4185C138.424 29.6035 138.489 29.7523 138.618 29.8651C138.748 29.9778 138.917 30.066 139.127 30.1296C139.337 30.1932 139.572 30.2553 139.829 30.316C140.086 30.3767 140.345 30.4447 140.6 30.5198C140.855 30.595 141.088 30.6933 141.297 30.8147C141.507 30.9361 141.676 31.1009 141.806 31.309C141.935 31.5171 142 31.7802 142 32.0967C142 32.4132 141.912 32.7197 141.737 32.9928C141.561 33.2674 141.293 33.4871 140.932 33.6505C140.571 33.8138 140.114 33.8976 139.562 33.8976Z" fill="#14416B"/>
<rect x="70" y="36" width="72" height="9" fill="#14416B"/>
<path d="M72.438 43V38.8H74.508V39.4H73.104V40.618H74.334V41.212H73.104V43H72.438ZM75.2505 43V38.8H76.3785C76.8185 38.8 77.1625 38.916 77.4105 39.148C77.6585 39.376 77.7825 39.672 77.7825 40.036C77.7825 40.28 77.7205 40.5 77.5965 40.696C77.4765 40.888 77.3105 41.028 77.0985 41.116L78.1185 43H77.3805L76.4985 41.266H75.9165V43H75.2505ZM75.9165 40.696H76.3665C76.5825 40.696 76.7565 40.638 76.8885 40.522C77.0245 40.406 77.0925 40.244 77.0925 40.036C77.0925 39.836 77.0305 39.678 76.9065 39.562C76.7825 39.442 76.6025 39.382 76.3665 39.382H75.9165V40.696ZM78.6489 43V38.8H80.7249V39.4H79.3149V40.57H80.5389V41.164H79.3149V42.4H80.7849V43H78.6489ZM81.5142 43V38.8H83.5902V39.4H82.1802V40.57H83.4042V41.164H82.1802V42.4H83.6502V43H81.5142ZM84.3794 43V38.8H85.0454V42.4H86.5154V43H84.3794ZM89.3603 41.776H87.8243L87.3863 43H86.7143L88.2443 38.8H88.9343L90.4643 43H89.7923L89.3603 41.776ZM89.1743 41.218L88.5923 39.52L88.0103 41.218H89.1743ZM90.9652 43V38.8H91.6372L93.6952 41.956V38.8H94.3492V43H93.6892L91.6252 39.862V43H90.9652ZM98.2791 42.058L98.4771 42.64C98.0971 42.932 97.6571 43.078 97.1571 43.078C96.5251 43.078 96.0071 42.872 95.6031 42.46C95.1991 42.044 94.9971 41.524 94.9971 40.9C94.9971 40.28 95.2011 39.762 95.6091 39.346C96.0211 38.93 96.5351 38.722 97.1511 38.722C97.6391 38.722 98.0631 38.858 98.4231 39.13L98.2251 39.718C97.9011 39.47 97.5491 39.346 97.1691 39.346C96.7371 39.346 96.3811 39.496 96.1011 39.796C95.8251 40.092 95.6871 40.46 95.6871 40.9C95.6871 41.344 95.8231 41.714 96.0951 42.01C96.3711 42.306 96.7311 42.454 97.1751 42.454C97.5591 42.454 97.9271 42.322 98.2791 42.058ZM99.1099 43V38.8H99.7759V43H99.1099ZM100.651 43V38.8H101.323L103.381 41.956V38.8H104.035V43H103.375L101.311 39.862V43H100.651ZM106.831 38.722C107.507 38.722 108.041 38.94 108.433 39.376L108.013 39.814C107.697 39.498 107.311 39.34 106.855 39.34C106.415 39.34 106.059 39.488 105.787 39.784C105.515 40.076 105.379 40.446 105.379 40.894C105.379 41.358 105.517 41.736 105.793 42.028C106.073 42.316 106.427 42.46 106.855 42.46C107.135 42.46 107.369 42.42 107.557 42.34C107.749 42.256 107.887 42.17 107.971 42.082V41.374H107.107V40.804H108.601V42.406C108.121 42.854 107.527 43.078 106.819 43.078C106.211 43.078 105.703 42.876 105.295 42.472C104.887 42.064 104.683 41.54 104.683 40.9C104.683 40.284 104.885 39.768 105.289 39.352C105.697 38.932 106.211 38.722 106.831 38.722ZM110.87 43V38.8H112.088C112.484 38.8 112.806 38.916 113.054 39.148C113.306 39.38 113.432 39.684 113.432 40.06C113.432 40.432 113.304 40.738 113.048 40.978C112.796 41.218 112.478 41.338 112.094 41.338H111.536V43H110.87ZM111.536 40.756H112.01C112.23 40.756 112.408 40.692 112.544 40.564C112.68 40.436 112.748 40.268 112.748 40.06C112.748 39.856 112.68 39.692 112.544 39.568C112.408 39.444 112.232 39.382 112.016 39.382H111.536V40.756ZM114.022 43V38.8H114.688V42.4H116.158V43H114.022ZM119.003 41.776H117.467L117.029 43H116.357L117.887 38.8H118.577L120.107 43H119.435L119.003 41.776ZM118.817 41.218L118.235 39.52L117.653 41.218H118.817ZM120.994 43V39.4H119.938V38.8H122.716V39.4H121.66V43H120.994ZM123.321 43V38.8H125.391V39.4H123.987V40.618H125.217V41.212H123.987V43H123.321ZM125.782 40.9C125.782 40.28 125.986 39.762 126.394 39.346C126.806 38.93 127.324 38.722 127.948 38.722C128.572 38.722 129.088 38.932 129.496 39.352C129.904 39.768 130.108 40.284 130.108 40.9C130.108 41.52 129.904 42.038 129.496 42.454C129.088 42.87 128.57 43.078 127.942 43.078C127.318 43.078 126.802 42.872 126.394 42.46C125.986 42.044 125.782 41.524 125.782 40.9ZM126.478 40.9C126.478 41.348 126.616 41.72 126.892 42.016C127.172 42.308 127.524 42.454 127.948 42.454C128.368 42.454 128.718 42.308 128.998 42.016C129.278 41.72 129.418 41.348 129.418 40.9C129.418 40.456 129.278 40.086 128.998 39.79C128.718 39.494 128.368 39.346 127.948 39.346C127.524 39.346 127.172 39.494 126.892 39.79C126.616 40.086 126.478 40.456 126.478 40.9ZM130.756 43V38.8H131.884C132.324 38.8 132.668 38.916 132.916 39.148C133.164 39.376 133.288 39.672 133.288 40.036C133.288 40.28 133.226 40.5 133.102 40.696C132.982 40.888 132.816 41.028 132.604 41.116L133.624 43H132.886L132.004 41.266H131.422V43H130.756ZM131.422 40.696H131.872C132.088 40.696 132.262 40.638 132.394 40.522C132.53 40.406 132.598 40.244 132.598 40.036C132.598 39.836 132.536 39.678 132.412 39.562C132.288 39.442 132.108 39.382 131.872 39.382H131.422V40.696ZM135.007 38.8L136.363 41.866L137.719 38.8H138.577V43H137.935V39.748L136.681 42.628H136.045L134.791 39.748V43H134.149V38.8H135.007Z" fill="white"/>
</svg>
